<mxfile host="app.diagrams.net" agent="Mozilla/5.0 (Macintosh; Intel Mac OS X 10_15_7) AppleWebKit/537.36 (KHTML, like Gecko) Chrome/136.0.0.0 Safari/537.36" version="27.1.5">
  <diagram name="第 1 页" id="PflZYvhLdvXU3DUgQTAc">
    <mxGraphModel dx="1018" dy="610" grid="1" gridSize="10" guides="1" tooltips="1" connect="1" arrows="1" fold="1" page="1" pageScale="1" pageWidth="827" pageHeight="1169" math="0" shadow="0">
      <root>
        <mxCell id="0" />
        <mxCell id="1" parent="0" />
        <mxCell id="oNfxwmGobl1Gd-9qbuMN-35" style="edgeStyle=orthogonalEdgeStyle;rounded=0;orthogonalLoop=1;jettySize=auto;html=1;entryX=0.5;entryY=0;entryDx=0;entryDy=0;" edge="1" parent="1" target="oNfxwmGobl1Gd-9qbuMN-32">
          <mxGeometry relative="1" as="geometry">
            <mxPoint x="503" y="80" as="sourcePoint" />
          </mxGeometry>
        </mxCell>
        <mxCell id="oNfxwmGobl1Gd-9qbuMN-40" style="edgeStyle=orthogonalEdgeStyle;rounded=0;orthogonalLoop=1;jettySize=auto;html=1;entryX=1;entryY=0.5;entryDx=0;entryDy=0;" edge="1" parent="1" source="oNfxwmGobl1Gd-9qbuMN-10" target="oNfxwmGobl1Gd-9qbuMN-32">
          <mxGeometry relative="1" as="geometry">
            <mxPoint x="870" y="150" as="targetPoint" />
            <Array as="points">
              <mxPoint x="760" y="307" />
              <mxPoint x="760" y="167" />
            </Array>
          </mxGeometry>
        </mxCell>
        <mxCell id="oNfxwmGobl1Gd-9qbuMN-10" value="合成异常" style="whiteSpace=wrap;strokeWidth=2;fillColor=#f8cecc;strokeColor=#b85450;" vertex="1" parent="1">
          <mxGeometry x="554" y="280" width="156" height="54" as="geometry" />
        </mxCell>
        <mxCell id="oNfxwmGobl1Gd-9qbuMN-38" style="edgeStyle=orthogonalEdgeStyle;rounded=0;orthogonalLoop=1;jettySize=auto;html=1;entryX=0.5;entryY=0;entryDx=0;entryDy=0;" edge="1" parent="1" source="oNfxwmGobl1Gd-9qbuMN-13" target="oNfxwmGobl1Gd-9qbuMN-15">
          <mxGeometry relative="1" as="geometry" />
        </mxCell>
        <mxCell id="oNfxwmGobl1Gd-9qbuMN-13" value="合成完成" style="whiteSpace=wrap;strokeWidth=2;fillColor=#d5e8d4;strokeColor=#82b366;" vertex="1" parent="1">
          <mxGeometry x="310" y="280" width="156" height="54" as="geometry" />
        </mxCell>
        <mxCell id="oNfxwmGobl1Gd-9qbuMN-52" style="edgeStyle=orthogonalEdgeStyle;rounded=0;orthogonalLoop=1;jettySize=auto;html=1;entryX=0.5;entryY=0;entryDx=0;entryDy=0;" edge="1" parent="1" source="oNfxwmGobl1Gd-9qbuMN-15" target="oNfxwmGobl1Gd-9qbuMN-51">
          <mxGeometry relative="1" as="geometry" />
        </mxCell>
        <mxCell id="oNfxwmGobl1Gd-9qbuMN-15" value="发帖页" style="whiteSpace=wrap;strokeWidth=2;" vertex="1" parent="1">
          <mxGeometry x="318" y="380" width="140" height="50" as="geometry" />
        </mxCell>
        <mxCell id="oNfxwmGobl1Gd-9qbuMN-36" style="edgeStyle=orthogonalEdgeStyle;rounded=0;orthogonalLoop=1;jettySize=auto;html=1;entryX=0.5;entryY=0;entryDx=0;entryDy=0;" edge="1" parent="1" source="oNfxwmGobl1Gd-9qbuMN-32" target="oNfxwmGobl1Gd-9qbuMN-13">
          <mxGeometry relative="1" as="geometry" />
        </mxCell>
        <mxCell id="oNfxwmGobl1Gd-9qbuMN-37" style="edgeStyle=orthogonalEdgeStyle;rounded=0;orthogonalLoop=1;jettySize=auto;html=1;" edge="1" parent="1" source="oNfxwmGobl1Gd-9qbuMN-32" target="oNfxwmGobl1Gd-9qbuMN-10">
          <mxGeometry relative="1" as="geometry" />
        </mxCell>
        <mxCell id="oNfxwmGobl1Gd-9qbuMN-46" style="edgeStyle=orthogonalEdgeStyle;rounded=0;orthogonalLoop=1;jettySize=auto;html=1;entryX=1;entryY=0.5;entryDx=0;entryDy=0;" edge="1" parent="1" source="oNfxwmGobl1Gd-9qbuMN-32" target="oNfxwmGobl1Gd-9qbuMN-43">
          <mxGeometry relative="1" as="geometry" />
        </mxCell>
        <mxCell id="oNfxwmGobl1Gd-9qbuMN-47" style="edgeStyle=orthogonalEdgeStyle;rounded=0;orthogonalLoop=1;jettySize=auto;html=1;entryX=1;entryY=0.5;entryDx=0;entryDy=0;" edge="1" parent="1" source="oNfxwmGobl1Gd-9qbuMN-32" target="oNfxwmGobl1Gd-9qbuMN-44">
          <mxGeometry relative="1" as="geometry" />
        </mxCell>
        <mxCell id="oNfxwmGobl1Gd-9qbuMN-32" value="合成中" style="whiteSpace=wrap;strokeWidth=2;fillColor=#e1d5e7;strokeColor=#9673a6;" vertex="1" parent="1">
          <mxGeometry x="425" y="140" width="156" height="54" as="geometry" />
        </mxCell>
        <mxCell id="oNfxwmGobl1Gd-9qbuMN-41" value="重启任务" style="text;strokeColor=none;fillColor=none;align=left;verticalAlign=middle;spacingLeft=4;spacingRight=4;overflow=hidden;points=[[0,0.5],[1,0.5]];portConstraint=eastwest;rotatable=0;whiteSpace=wrap;html=1;" vertex="1" parent="1">
          <mxGeometry x="740" y="230" width="70" height="30" as="geometry" />
        </mxCell>
        <mxCell id="oNfxwmGobl1Gd-9qbuMN-49" style="edgeStyle=orthogonalEdgeStyle;rounded=0;orthogonalLoop=1;jettySize=auto;html=1;entryX=1;entryY=0.5;entryDx=0;entryDy=0;" edge="1" parent="1" source="oNfxwmGobl1Gd-9qbuMN-43" target="oNfxwmGobl1Gd-9qbuMN-48">
          <mxGeometry relative="1" as="geometry" />
        </mxCell>
        <mxCell id="oNfxwmGobl1Gd-9qbuMN-43" value="重新编辑" style="rounded=0;whiteSpace=wrap;html=1;" vertex="1" parent="1">
          <mxGeometry x="178" y="100" width="140" height="50" as="geometry" />
        </mxCell>
        <mxCell id="oNfxwmGobl1Gd-9qbuMN-44" value="任务取消" style="rounded=0;whiteSpace=wrap;html=1;" vertex="1" parent="1">
          <mxGeometry x="178" y="170" width="140" height="50" as="geometry" />
        </mxCell>
        <mxCell id="oNfxwmGobl1Gd-9qbuMN-45" value="合成小窗" style="rounded=1;whiteSpace=wrap;html=1;strokeWidth=2;fillColor=#fff2cc;strokeColor=#d6b656;" vertex="1" parent="1">
          <mxGeometry x="443" y="20" width="120" height="60" as="geometry" />
        </mxCell>
        <mxCell id="oNfxwmGobl1Gd-9qbuMN-50" style="edgeStyle=orthogonalEdgeStyle;rounded=0;orthogonalLoop=1;jettySize=auto;html=1;entryX=0;entryY=0.5;entryDx=0;entryDy=0;" edge="1" parent="1" source="oNfxwmGobl1Gd-9qbuMN-48" target="oNfxwmGobl1Gd-9qbuMN-45">
          <mxGeometry relative="1" as="geometry">
            <Array as="points">
              <mxPoint x="90" y="50" />
            </Array>
          </mxGeometry>
        </mxCell>
        <mxCell id="oNfxwmGobl1Gd-9qbuMN-48" value="模板预览选择页" style="rounded=0;whiteSpace=wrap;html=1;fillColor=#fad7ac;strokeColor=#b46504;" vertex="1" parent="1">
          <mxGeometry x="30" y="102.5" width="110" height="45" as="geometry" />
        </mxCell>
        <mxCell id="oNfxwmGobl1Gd-9qbuMN-51" value="发视频帖" style="rounded=0;whiteSpace=wrap;html=1;strokeWidth=2;fillColor=#b1ddf0;strokeColor=#10739e;" vertex="1" parent="1">
          <mxGeometry x="332" y="470" width="112" height="50" as="geometry" />
        </mxCell>
        <mxCell id="oNfxwmGobl1Gd-9qbuMN-53" style="edgeStyle=orthogonalEdgeStyle;rounded=0;orthogonalLoop=1;jettySize=auto;html=1;entryX=0.564;entryY=1.033;entryDx=0;entryDy=0;entryPerimeter=0;" edge="1" parent="1" source="oNfxwmGobl1Gd-9qbuMN-15" target="oNfxwmGobl1Gd-9qbuMN-48">
          <mxGeometry relative="1" as="geometry" />
        </mxCell>
        <mxCell id="oNfxwmGobl1Gd-9qbuMN-54" value="&lt;font style=&quot;font-size: 14px;&quot;&gt;回退按键&lt;/font&gt;" style="edgeLabel;html=1;align=center;verticalAlign=middle;resizable=0;points=[];" vertex="1" connectable="0" parent="oNfxwmGobl1Gd-9qbuMN-53">
          <mxGeometry x="0.1327" relative="1" as="geometry">
            <mxPoint as="offset" />
          </mxGeometry>
        </mxCell>
      </root>
    </mxGraphModel>
  </diagram>
</mxfile>
